<?xml version="1.0" encoding="UTF-8"?>
<svg version="1.1" xmlns="http://www.w3.org/2000/svg" width="1024" height="1024">
<path d="M0 0 C337.92 0 675.84 0 1024 0 C1024 337.92 1024 675.84 1024 1024 C686.08 1024 348.16 1024 0 1024 C0 686.08 0 348.16 0 0 Z " fill="#FEFEFE" transform="translate(0,0)"/>
<path d="M0 0 C0.70872065 0.1909984 1.41744129 0.3819968 2.14763832 0.57878304 C3.68763516 0.99433687 5.22663111 1.41361405 6.76471138 1.83620644 C11.01595003 3.00264743 15.2757468 4.13707891 19.53491211 5.27416992 C20.43414304 5.51482965 21.33337397 5.75548937 22.25985432 6.00344181 C32.4919843 8.73178299 42.76640047 11.28552596 53.04711914 13.82348633 C53.9920158 14.05701687 54.93691246 14.29054741 55.91044235 14.53115463 C61.68876295 15.95878195 67.46816784 17.38197265 73.2479248 18.80377197 C77.17820974 19.77135184 81.10778275 20.741805 85.03733921 21.71233845 C89.83198188 22.89637293 94.62703653 24.07873499 99.42211914 25.26098633 C100.7300603 25.58368217 100.7300603 25.58368217 102.06442451 25.91289711 C114.11094773 28.88347732 126.17269652 31.78491193 138.24492455 34.64912987 C143.91232521 35.99606892 149.57532478 37.36135747 155.23852539 38.72583008 C156.48906708 39.0271283 157.73960876 39.32842651 159.02804565 39.63885498 C161.62056515 40.26362127 164.21300597 40.8887117 166.80541992 41.51391602 C169.45432868 42.15268579 172.10342846 42.79065496 174.75268555 43.42797852 C178.6233203 44.35912575 182.49344431 45.29238416 186.36352539 46.22583008 C188.14450119 46.65390961 188.14450119 46.65390961 189.9614563 47.09063721 C191.05465179 47.35471375 192.14784729 47.61879028 193.27416992 47.89086914 C194.23453156 48.122276 195.19489319 48.35368286 196.18435669 48.59210205 C198.01165354 49.05855871 199.81659689 49.61383308 201.60571289 50.21020508 C201.7233639 70.55342586 201.81109618 90.89657608 201.86477375 111.24006844 C201.89037769 120.68937793 201.92517983 130.1384741 201.98291016 139.58764648 C202.03329876 147.83919182 202.06513261 156.09058245 202.07615536 164.34227741 C202.08258208 168.69736553 202.09729624 173.05201168 202.13436317 177.40695572 C202.42385341 212.84710433 197.96024023 246.39985686 183.60571289 279.21020508 C182.69861572 279.23207886 182.69861572 279.23207886 181.77319336 279.25439453 C179.00842024 279.32929696 176.24479932 279.42581581 173.48071289 279.52270508 C172.52938477 279.54526367 171.57805664 279.56782227 170.59790039 279.59106445 C165.17020698 279.79837219 161.3567995 280.33143142 156.60571289 283.21020508 C155.61571289 283.54020508 154.62571289 283.87020508 153.60571289 284.21020508 C152.43617874 286.63403585 152.43617874 286.63403585 151.60571289 289.21020508 C151.27571289 289.87020508 150.94571289 290.53020508 150.60571289 291.21020508 C150.27571289 298.47020508 149.94571289 305.73020508 149.60571289 313.21020508 C128.48571289 313.21020508 107.36571289 313.21020508 85.60571289 313.21020508 C80.14370771 300.10139265 80.14370771 300.10139265 81.60571289 294.21020508 C81.76381207 291.28517098 81.72291904 288.36158954 81.70336914 285.43286133 C81.70195419 284.6215123 81.70053925 283.81016327 81.69908142 282.97422791 C81.69352646 280.40701461 81.68098257 277.83989159 81.66821289 275.27270508 C81.66319206 273.5220553 81.65863018 271.77140415 81.65454102 270.02075195 C81.64357182 265.75053538 81.62633872 261.48038549 81.60571289 257.21020508 C82.1592041 257.0295752 82.71269531 256.84894531 83.28295898 256.6628418 C100.90494087 250.85730645 113.28980364 246.18579112 122.15478516 229.11865234 C124.21062134 224.81094394 125.12891744 220.75629235 125.85424805 216.05444336 C127.05932915 208.35036458 127.05932915 208.35036458 128.60571289 205.21020508 C131.81401285 202.95121032 134.55263367 202.10128117 138.33618164 201.12036133 C144.07061663 199.52403713 147.65477142 196.04490636 150.97680664 191.21801758 C155.21044111 183.21952477 154.56603581 173.65769415 152.10864258 165.1796875 C151.43522342 163.13489706 150.7407669 161.09693871 150.02758789 159.06567383 C149.65974182 157.97104324 149.29189575 156.87641266 148.91290283 155.74861145 C148.13850048 153.45576288 147.35483327 151.16602407 146.56225586 148.87939453 C145.35486207 145.39524988 144.17519694 141.90267342 143.00024414 138.4074707 C142.24011196 136.16799926 141.47844564 133.92904784 140.71508789 131.69067383 C140.18827423 130.1404377 140.18827423 130.1404377 139.65081787 128.55888367 C135.74279081 117.31355489 131.8361909 109.4393526 121.29321289 103.27270508 C110.91624661 100.28273174 101.73273307 103.27722326 91.79321289 106.58520508 C90.37802187 107.04296005 88.96240367 107.49939622 87.54638672 107.95458984 C83.22508566 109.35003376 78.91440534 110.77637303 74.60571289 112.21020508 C73.95957031 112.42477356 73.31342773 112.63934204 72.64770508 112.8604126 C67.12959409 114.69318828 61.61443853 116.53464428 56.10375977 118.38964844 C46.5379837 121.60046423 36.92663752 124.6466794 27.29321289 127.64770508 C16.16879031 131.11479757 5.08598536 134.67878894 -5.95678711 138.39770508 C-19.91390808 143.09601586 -33.92714435 147.60847338 -47.95678711 152.08520508 C-50.09988648 152.76991636 -52.24295295 153.45473062 -54.38598633 154.13964844 C-71.28962651 159.54107756 -71.28962651 159.54107756 -79.43041992 162.13110352 C-84.11451384 163.62188742 -88.7960445 165.12047064 -93.47579956 166.62481689 C-95.19323555 167.17536662 -96.91158234 167.72308433 -98.63088989 168.26776123 C-100.99584754 169.01729402 -103.35744683 169.77662056 -105.71850586 170.53833008 C-106.73849167 170.85766006 -106.73849167 170.85766006 -107.77908325 171.18344116 C-112.76603937 172.80939934 -118.66962242 174.7918736 -121.81225586 179.19848633 C-123.77796905 185.99272992 -122.30284615 192.89943248 -119.39428711 199.21020508 C-118.73428711 199.87020508 -118.07428711 200.53020508 -117.39428711 201.21020508 C-109.73287086 200.88953494 -102.94455351 198.11969198 -95.82006836 195.47387695 C-94.47235352 194.99724609 -94.47235352 194.99724609 -93.09741211 194.51098633 C-92.28949219 194.21361572 -91.48157227 193.91624512 -90.64916992 193.60986328 C-87.82599452 193.1094802 -86.76519081 193.67064091 -84.39428711 195.21020508 C-82.83745582 196.52282754 -81.31989712 197.88265833 -79.83178711 199.27270508 C-76.35630172 202.46406319 -72.83017637 205.51476033 -69.14428711 208.46020508 C-64.07245945 212.55778336 -59.33681942 216.93998861 -54.59326172 221.40576172 C-50.23481906 225.48698473 -45.71410575 229.29185017 -41.05053711 233.02270508 C-38.17631738 235.38970956 -35.44258715 237.87235119 -32.70678711 240.39770508 C-27.98780527 244.7189144 -27.98780527 244.7189144 -23.14428711 248.89770508 C-22.58225586 249.37594727 -22.02022461 249.85418945 -21.44116211 250.34692383 C-15.9113093 252.67917091 -8.35651902 249.04959886 -2.99584961 247.24536133 C-1.61055809 246.78778694 -1.61055809 246.78778694 -0.19728088 246.32096863 C1.81015291 245.65763735 3.81677236 244.99183766 5.82266235 244.32385254 C11.27838199 242.50793295 16.74073535 240.71223093 22.20336914 238.91723633 C23.35614853 238.5382016 24.50892792 238.15916687 25.69664001 237.76864624 C42.00734456 232.42013052 58.38950031 227.29647346 74.76538086 222.15185547 C76.51722435 221.60106071 76.51722435 221.60106071 78.30445862 221.03913879 C80.47170403 220.35801066 82.63926757 219.67789344 84.80723572 218.99906921 C85.79107742 218.69008194 86.77491913 218.38109467 87.78857422 218.06274414 C88.74027496 217.76501099 89.69197571 217.46727783 90.67251587 217.16052246 C92.74920784 216.48770149 94.81518238 215.7813756 96.87265015 215.05187988 C97.93786896 214.67583618 99.00308777 214.29979248 100.10058594 213.91235352 C101.06038864 213.56348083 102.02019135 213.21460815 103.00907898 212.85516357 C105.70117719 212.18649341 107.03561642 212.26906234 109.60571289 213.21020508 C109.20421109 214.77667042 108.78370411 216.338269 108.35571289 217.89770508 C108.12368164 218.76782227 107.89165039 219.63793945 107.65258789 220.53442383 C105.92932676 224.93902783 103.80276407 227.58162495 99.58642578 229.7956543 C97.81900024 230.46105225 97.81900024 230.46105225 96.01586914 231.13989258 C95.36167496 231.3883493 94.70748077 231.63680603 94.03346252 231.89279175 C85.79494978 234.97241865 77.41819531 237.6557855 69.04321289 240.33520508 C67.2943278 240.89892318 65.54555062 241.4629762 63.796875 242.02734375 C50.18935212 246.41158482 36.56207438 250.73539813 22.92041016 255.01220703 C15.86991809 257.22355216 8.8283202 259.45260758 1.81274414 261.77270508 C0.64541748 262.15644287 -0.52190918 262.54018066 -1.72460938 262.93554688 C-3.84910526 263.63657542 -5.97093163 264.34577231 -8.08935547 265.06494141 C-9.00724854 265.36682373 -9.9251416 265.66870605 -10.87084961 265.97973633 C-11.65540527 266.24375244 -12.43996094 266.50776855 -13.24829102 266.77978516 C-15.70172663 267.27186786 -17.05986501 267.07206145 -19.39428711 266.21020508 C-21.94506836 264.35473633 -21.94506836 264.35473633 -24.70678711 262.02270508 C-26.14924805 260.81227539 -26.14924805 260.81227539 -27.62084961 259.57739258 C-28.53608398 258.7962207 -29.45131836 258.01504883 -30.39428711 257.21020508 C-31.14452148 256.5734082 -31.89475586 255.93661133 -32.66772461 255.28051758 C-34.24956052 253.9311147 -35.82305467 252.57193986 -37.39428711 251.21020508 C-37.54124023 252.89436523 -37.54124023 252.89436523 -37.69116211 254.61254883 C-38.76869725 265.81966519 -40.25839677 274.87587839 -48.39428711 283.21020508 C-51.20678711 285.08520508 -51.20678711 285.08520508 -53.39428711 286.21020508 C-53.52869489 288.63940373 -53.52869489 288.63940373 -52.39428711 291.21020508 C-41.70306261 296.6496 -32.56005452 293.37815811 -21.76928711 289.96020508 C-20.33785375 289.51607709 -18.90612488 289.07290053 -17.47412109 288.63061523 C-12.77535825 287.17441545 -8.08438758 285.6940305 -3.39428711 284.21020508 C-2.54090759 283.94050903 -1.68752808 283.67081299 -0.80828857 283.39294434 C1.84676847 282.55379427 4.5016542 281.71410423 7.15649414 280.87426758 C8.46049164 280.46192871 8.46049164 280.46192871 9.79083252 280.04125977 C14.05943423 278.69072818 18.32648226 277.33564932 22.59057617 275.97094727 C23.3790947 275.71969086 24.16761322 275.46843445 24.98002625 275.20956421 C26.46353169 274.73682745 27.94632956 274.26186258 29.42829895 273.78433228 C34.3800838 272.21020508 34.3800838 272.21020508 36.60571289 272.21020508 C36.89704102 273.39356445 37.18836914 274.57692383 37.48852539 275.79614258 C40.61837903 288.89688156 40.61837903 288.89688156 47.60571289 300.21020508 C49.37348516 301.26599979 49.37348516 301.26599979 51.23071289 302.02270508 C53.99517711 303.30836202 54.52394819 304.00696979 55.69165039 306.90942383 C56.31629097 309.16507037 56.92768358 311.42441658 57.52758789 313.68676758 C60.53871268 323.52747252 66.40237371 332.19840748 75.49243164 337.26098633 C80.74141779 339.6634507 85.78470413 340.3284032 91.49755859 340.41552734 C92.65838455 340.43547256 93.81921051 340.45541779 95.01521301 340.47596741 C96.25808578 340.4926799 97.50095856 340.5093924 98.78149414 340.52661133 C100.70193794 340.55778297 100.70193794 340.55778297 102.66117859 340.58958435 C106.05261018 340.6445808 109.44410024 340.6940882 112.83563232 340.74243164 C116.30136268 340.79281124 119.76700892 340.84841109 123.23266602 340.90356445 C130.02361449 341.01057937 136.8146262 341.11237642 143.60571289 341.21020508 C141.98397111 344.62199527 140.11550112 347.04969366 137.54321289 349.83520508 C136.74270508 350.70790039 135.94219727 351.5805957 135.11743164 352.47973633 C133.87413086 353.83131836 133.87413086 353.83131836 132.60571289 355.21020508 C131.0207229 356.97955577 129.43733072 358.75033937 127.85571289 360.52270508 C121.43514516 367.63799392 121.43514516 367.63799392 118.60571289 370.21020508 C117.94571289 370.21020508 117.28571289 370.21020508 116.60571289 370.21020508 C116.60571289 370.87020508 116.60571289 371.53020508 116.60571289 372.21020508 C115.0123705 373.64570234 113.35320207 375.00847834 111.66821289 376.33520508 C108.20618773 379.09694702 104.83936021 381.87310163 101.60571289 384.89770508 C84.55924877 400.18178967 64.40851179 412.8076823 44.60571289 424.21020508 C43.94200684 424.59354004 43.27830078 424.976875 42.59448242 425.37182617 C30.4087161 432.3706983 17.94332644 438.78074229 5.27612305 444.86108398 C2.95236042 446.03507487 0.78229173 447.29803259 -1.41381836 448.69067383 C-6.28517713 451.42978802 -9.59761881 452.93848794 -15.0324707 451.52319336 C-21.45410328 449.18187195 -27.44149055 446.0559532 -33.4387207 442.79858398 C-36.1098913 441.36304492 -38.799646 440.02162496 -41.53881836 438.72192383 C-76.75234423 421.96832105 -110.22703008 399.60841963 -139.05444336 373.33129883 C-141.18233526 371.40234173 -143.3414957 369.51984155 -145.51928711 367.64770508 C-152.36890096 361.66635214 -158.49668546 355.11815283 -164.39428711 348.21020508 C-165.20639648 347.28723633 -166.01850586 346.36426758 -166.85522461 345.41333008 C-195.94008648 312.10151071 -214.59114139 271.66386466 -222.39428711 228.21020508 C-222.58909668 227.1837085 -222.58909668 227.1837085 -222.7878418 226.13647461 C-225.38355024 212.05639228 -224.58220473 197.46881595 -224.39428711 183.21020508 C-218.34100897 182.16598459 -211.87365706 181.20268608 -206.33276367 184.3996582 C-201.31408154 188.28077238 -197.13001118 193.01362727 -192.89428711 197.71020508 C-191.57391334 199.11097479 -190.24971644 200.50815112 -188.92163086 201.90161133 C-185.70024348 205.29795106 -182.53457995 208.73881892 -179.39428711 212.21020508 C-179.88928711 213.15895508 -180.38428711 214.10770508 -180.89428711 215.08520508 C-182.5385308 217.93298674 -182.5385308 217.93298674 -182.39428711 220.21020508 C-183.38428711 220.21020508 -184.37428711 220.21020508 -185.39428711 220.21020508 C-187.3545901 228.05141703 -186.75167862 234.91329369 -183.39428711 242.21020508 C-180.01254339 247.33113128 -176.28072178 250.5283666 -170.39428711 252.21020508 C-162.48514046 253.19009935 -155.09875332 252.8195256 -148.39428711 248.21020508 C-143.44505165 243.80495886 -140.87587239 239.37954618 -140.10913086 232.74145508 C-139.7162665 225.56916208 -141.05871969 220.00788423 -145.39428711 214.21020508 C-149.62375854 210.11634797 -153.41128339 208.14270962 -159.28100586 207.92895508 C-168.33340619 206.41718601 -174.05531347 198.55892927 -180.08178711 192.21020508 C-181.37862311 190.88533551 -182.67743652 189.56239846 -183.97827148 188.24145508 C-185.2059252 186.98273532 -186.43190076 185.72237614 -187.65600586 184.46020508 C-188.23396408 183.86433594 -188.8119223 183.2684668 -189.40739441 182.65454102 C-193.39428711 178.44822527 -193.39428711 178.44822527 -193.39428711 176.21020508 C-194.26053711 175.83895508 -194.26053711 175.83895508 -195.14428711 175.46020508 C-197.69308092 174.04420852 -199.34151926 172.26297293 -201.39428711 170.21020508 C-204.18455381 169.28011618 -206.15958253 169.02321738 -209.06225586 168.89379883 C-209.86687256 168.85569092 -210.67148926 168.81758301 -211.50048828 168.77832031 C-212.51731689 168.73521729 -213.53414551 168.69211426 -214.58178711 168.64770508 C-217.81991211 168.50333008 -221.05803711 168.35895508 -224.39428711 168.21020508 C-224.39428711 160.29020508 -224.39428711 152.37020508 -224.39428711 144.21020508 C-216.28368956 144.00655242 -208.17509089 143.84159138 -200.06262016 143.74389553 C-196.29525375 143.69699618 -192.52973217 143.63344012 -188.76342773 143.53125 C-185.12577461 143.43317266 -181.48989051 143.37959286 -177.851017 143.35630989 C-176.46573146 143.33972853 -175.08053883 143.3073431 -173.69601059 143.25863457 C-162.80848448 142.89097597 -162.80848448 142.89097597 -159.25657654 146.20436096 C-157.75258033 148.47984911 -156.58883649 150.7642422 -155.39428711 153.21020508 C-149.98794033 157.6786259 -143.89808065 158.90876092 -137.00756836 158.57739258 C-133.08874116 158.02676514 -129.9990302 156.85447386 -126.39428711 155.21020508 C-125.61053711 154.90083008 -124.82678711 154.59145508 -124.01928711 154.27270508 C-121.90208679 152.88838179 -121.46639543 151.48843526 -120.39428711 149.21020508 C-120.04108398 148.54762695 -119.68788086 147.88504883 -119.32397461 147.20239258 C-116.0081986 140.54627925 -114.99274426 134.77195751 -117.20678711 127.56567383 C-120.05477895 120.96980383 -124.03878576 117.4355625 -130.39428711 114.21020508 C-136.55211959 112.15759425 -143.90418199 112.09227365 -149.83178711 114.89770508 C-155.68466217 118.35842996 -158.32637254 122.07437595 -161.39428711 128.21020508 C-182.18428711 128.21020508 -202.97428711 128.21020508 -224.39428711 128.21020508 C-224.39428711 124.25020508 -224.39428711 120.29020508 -224.39428711 116.21020508 C-222.36788086 116.22374023 -222.36788086 116.22374023 -220.30053711 116.23754883 C-218.49842492 116.20939083 -216.69634158 116.17934227 -214.89428711 116.14770508 C-213.56397461 116.16414063 -213.56397461 116.16414063 -212.20678711 116.1809082 C-206.24129528 116.02738452 -202.83461214 114.8889768 -198.5637207 110.70410156 C-196.37075248 108.18315059 -194.33587436 105.58370174 -192.30154419 102.93492126 C-182.81382319 90.70049547 -173.20758026 78.45568378 -157.05052185 76.24760437 C-151.48264227 75.77164869 -145.97854444 75.70298337 -140.39428711 75.83520508 C-139.30036652 75.85358429 -138.20644592 75.8719635 -137.07937622 75.89089966 C-133.9250276 75.97916733 -130.79173198 76.150487 -127.64428711 76.37426758 C-126.22568642 76.45536522 -126.22568642 76.45536522 -124.77842712 76.5381012 C-120.93058225 76.95119544 -118.35333592 77.28351204 -115.51098633 80.02996826 C-114.01233708 82.03307558 -112.71060017 84.08547904 -111.39428711 86.21020508 C-106.73215207 90.74965236 -101.4611858 92.80514299 -95.08178711 93.64770508 C-87.80051771 92.78382566 -81.42812904 90.87707062 -76.33178711 85.39770508 C-72.1802721 80.01464016 -70.82042956 74.33690092 -71.02709961 67.60864258 C-71.89790801 61.92059624 -74.25574197 57.06036497 -78.62475586 53.28051758 C-85.80911291 48.38155959 -91.75467181 47.45176557 -100.39428711 48.21020508 C-107.07157156 49.97507656 -111.48858451 54.69693793 -115.39428711 60.21020508 C-115.72428711 61.20020508 -116.05428711 62.19020508 -116.39428711 63.21020508 C-117.41999817 63.20568077 -117.41999817 63.20568077 -118.46643066 63.20106506 C-125.60498985 63.17643989 -132.74221341 63.20069962 -139.88061523 63.25292969 C-142.54271026 63.26993212 -145.20261793 63.26683271 -147.86499023 63.25488281 C-151.69858057 63.2398407 -155.52965276 63.26960584 -159.36303711 63.30786133 C-160.54667847 63.29360611 -161.73031982 63.27935089 -162.9498291 63.2646637 C-169.98954621 63.38711914 -173.853409 64.32817085 -178.81893921 69.43995667 C-179.33880402 70.02413864 -179.85866882 70.60832062 -180.39428711 71.21020508 C-181.14202393 71.9152417 -181.88976074 72.62027832 -182.66015625 73.34667969 C-183.53595337 74.22078491 -183.53595337 74.22078491 -184.42944336 75.11254883 C-185.09395508 75.77577148 -185.7584668 76.43899414 -186.44311523 77.12231445 C-187.43988281 78.12488281 -187.43988281 78.12488281 -188.45678711 79.14770508 C-189.12516602 79.8122168 -189.79354492 80.47672852 -190.48217773 81.16137695 C-198.06623493 88.66060098 -198.06623493 88.66060098 -204.62304688 97.03613281 C-205.89428711 98.71020508 -205.89428711 98.71020508 -209.39428711 101.21020508 C-214.34428711 101.21020508 -219.29428711 101.21020508 -224.39428711 101.21020508 C-224.39428711 84.38020508 -224.39428711 67.55020508 -224.39428711 50.21020508 C-203.72097034 44.46761709 -203.72097034 44.46761709 -194.03100586 42.11645508 C-192.39051773 41.71467545 -192.39051773 41.71467545 -190.71688843 41.30477905 C-187.1724853 40.43731751 -183.62714736 39.57374561 -180.08178711 38.71020508 C-177.53736717 38.08824901 -174.99301631 37.46601025 -172.44873047 36.84350586 C-167.24894606 35.57148267 -162.04878425 34.30101649 -156.84838867 33.03149414 C-149.12856381 31.14626238 -141.41106459 29.25165146 -133.69413757 27.354599 C-128.53493385 26.08647426 -123.37536427 24.81988555 -118.21484375 23.55712891 C-116.01293851 23.01831439 -113.81103425 22.47949591 -111.60913086 21.94067383 C-110.47272659 21.66260391 -109.33632233 21.384534 -108.16548157 21.09803772 C-99.93331752 19.08181912 -91.7042447 17.05333277 -83.47624111 15.02021408 C-75.97737798 13.16764087 -68.47702096 11.32118801 -60.97580051 9.47818375 C-56.29466131 8.32774805 -51.61428822 7.1743748 -46.93557739 6.01409912 C-42.50824959 4.9162338 -38.07909619 3.82605944 -33.64849663 2.74147606 C-32.00074339 2.33666435 -30.35367631 1.92904812 -28.70735359 1.51845741 C-26.43175991 0.95138078 -24.15390315 0.39445423 -21.87524414 -0.16015625 C-20.59392609 -0.47624344 -19.31260803 -0.79233063 -17.99246216 -1.11799622 C-11.50816877 -2.3286488 -6.3277895 -1.73501834 0 0 Z " fill="#FDFEFE" transform="translate(523.394287109375,179.789794921875)"/>
<path d="M0 0 C1.29947864 0.34485356 2.59969061 0.68695003 3.9004364 1.0269928 C7.84491735 2.06601879 11.77993344 3.13762995 15.71407318 4.21506119 C38.02653893 10.31481598 60.45161794 15.91881814 82.91558838 21.42907715 C87.64898898 22.59125191 92.38104238 23.75888705 97.11328125 24.92578125 C114.88931203 29.30663811 132.67212524 33.65962268 150.4609375 37.98828125 C151.21655724 38.17220051 151.97217697 38.35611977 152.75069427 38.54561234 C160.85285474 40.5169472 168.95809059 42.47427624 177.07203674 44.39666748 C182.05242085 45.57973747 187.02624734 46.7894143 192 48 C193.33316413 48.32180403 194.66633508 48.6435798 195.99951172 48.96533203 C199.57116963 49.82951494 203.1383449 50.71064293 206.70343018 51.60153198 C208.0955671 51.94705831 209.48891183 52.28775867 210.88348389 52.62332153 C212.82794369 53.09226495 214.76761732 53.58091954 216.70703125 54.0703125 C217.8256958 54.34633301 218.94436035 54.62235352 220.09692383 54.90673828 C223.31227592 56.11759916 224.85428536 57.34304225 227 60 C228.13136935 63.39410804 228.12871447 65.97309861 228.13371277 69.5526886 C228.13597833 70.22168267 228.13824388 70.89067674 228.14057809 71.57994336 C228.14691986 73.82715741 228.14608855 76.07431118 228.14526367 78.3215332 C228.14825554 79.93158038 228.15165814 81.54162685 228.15544128 83.15167236 C228.16429473 87.53506732 228.1666203 91.91844276 228.16725707 96.30184579 C228.16796821 99.04869238 228.17010401 101.79553402 228.17275429 104.54237938 C228.18202066 114.15089608 228.18608862 123.7593989 228.18530273 133.36791992 C228.1847055 142.27723431 228.1951839 151.18648746 228.2110464 160.09578639 C228.22421792 167.77171398 228.22948246 175.44762184 228.22884732 183.12356061 C228.22859462 187.69503405 228.23131664 192.26645338 228.24202538 196.83791542 C228.34294831 243.14426843 228.34294831 243.14426843 223.75 264.5625 C223.53529053 265.5949585 223.32058105 266.62741699 223.09936523 267.69116211 C220.90506336 277.94407889 218.19591041 288.01543262 215 298 C214.78827148 298.66660645 214.57654297 299.33321289 214.35839844 300.02001953 C205.7082884 326.55296403 191.38827298 352.2230998 174 374 C173.33613281 374.85464844 172.67226563 375.70929688 171.98828125 376.58984375 C167.90125303 381.80100547 163.59485873 386.76322149 159.12890625 391.65234375 C157.33317723 393.63258804 155.59932394 395.6456535 153.875 397.6875 C145.5297222 407.23605041 136.41831139 416.19254901 126.45703125 424.0390625 C124.14802818 425.88185986 121.98277136 427.80980138 119.8125 429.8125 C86.17575952 459.80966298 43.42876249 483.0622739 2 500 C1.28086426 500.30905273 0.56172852 500.61810547 -0.17919922 500.93652344 C-5.91829696 503.29603736 -10.47309055 503.83357119 -16.41479492 501.87353516 C-17.59146729 501.35065918 -18.76813965 500.8277832 -19.98046875 500.2890625 C-20.6263797 500.00575073 -21.27229065 499.72243896 -21.93777466 499.43054199 C-24.02739243 498.50899874 -26.10759575 497.56823978 -28.1875 496.625 C-29.64134058 495.97469599 -31.09536224 495.32479664 -32.54956055 494.67529297 C-36.71119559 492.80827212 -40.85825975 490.91069006 -45 489 C-45.99418945 488.54238281 -46.98837891 488.08476563 -48.01269531 487.61328125 C-68.59094919 478.01889355 -88.414473 466.01208939 -107 453 C-107.57959473 452.59620117 -108.15918945 452.19240234 -108.75634766 451.77636719 C-122.05044552 442.49401206 -134.7193359 432.58280048 -147 422 C-148.02287109 421.12988281 -148.02287109 421.12988281 -149.06640625 420.2421875 C-158.91644413 411.77498431 -168.71648217 403.02360035 -177 393 C-177.89461637 391.97565908 -178.7920258 390.95375431 -179.69140625 389.93359375 C-186.97525445 381.63711299 -193.69271225 373.06043258 -200 364 C-200.65452148 363.06824951 -200.65452148 363.06824951 -201.32226562 362.11767578 C-214.55892571 343.09120252 -225.37387884 321.88439712 -233 300 C-233.30486328 299.13052734 -233.60972656 298.26105469 -233.92382812 297.36523438 C-239.34344806 281.58158132 -242.63530963 265.50309983 -245 249 C-245.1740889 247.84021133 -245.3481778 246.68042267 -245.52754211 245.48548889 C-247.79259045 228.62134248 -247.32952343 211.52821529 -247.33451414 194.54894614 C-247.33594764 191.80481219 -247.34023894 189.06069749 -247.34550858 186.31656837 C-247.36390582 176.72641378 -247.37218981 167.13631424 -247.37060547 157.54614258 C-247.36939795 148.62701283 -247.3906455 139.70812263 -247.4220928 130.78905362 C-247.44823354 123.09945694 -247.45897411 115.40993888 -247.45769465 107.72029811 C-247.45718557 103.1405654 -247.46284304 98.5610476 -247.48405075 93.98135948 C-247.50340296 89.68747512 -247.50357862 85.39401208 -247.48901749 81.10011292 C-247.48692648 79.5271423 -247.49164773 77.9541454 -247.5037384 76.38121986 C-247.5191927 74.23153145 -247.50988486 72.08329697 -247.49447632 69.93363953 C-247.49556585 68.73233241 -247.49665539 67.5310253 -247.49777794 66.29331493 C-246.89487717 62.30450396 -245.49898203 60.13080406 -243 57 C-240.65397644 55.65606689 -240.65397644 55.65606689 -238.05151367 54.83300781 C-237.07693207 54.52028931 -236.10235046 54.2075708 -235.09823608 53.88537598 C-229.81351072 52.37517186 -224.51506229 50.97648279 -219.17578125 49.671875 C-217.94456543 49.3658284 -216.71334961 49.0597818 -215.44482422 48.74446106 C-212.09956657 47.91292694 -208.75258531 47.08854144 -205.40524673 46.26543045 C-201.85981195 45.39221201 -198.31607135 44.5121739 -194.7722168 43.63256836 C-190.34223991 42.53342265 -185.91211796 41.43487806 -181.48127747 40.33921814 C-171.26436739 37.81259735 -161.05233335 35.26707996 -150.84375 32.70703125 C-149.44887325 32.35729835 -148.05399614 32.0075669 -146.65911865 31.65783691 C-144.59034544 31.13912045 -142.52157515 30.62039231 -140.45281601 30.10161972 C-98.90005592 19.68287682 -98.90005592 19.68287682 -80.96289062 15.39355469 C-72.73405736 13.42127258 -64.52734118 11.37570497 -56.33119202 9.2711792 C-51.78154523 8.10353856 -47.22814834 6.950811 -42.67401028 5.80082703 C-39.44339938 4.98394911 -36.21617555 4.15694952 -32.99172974 3.31585693 C-29.38064877 2.37470377 -25.76369821 1.46026555 -22.14453125 0.55078125 C-21.06693542 0.26283188 -19.9893396 -0.02511749 -18.87908936 -0.3217926 C-11.83135011 -2.05707297 -6.93178328 -1.98530342 0 0 Z M-18.51196289 25.41430664 C-19.77526428 25.72685394 -21.03856567 26.03940125 -22.34014893 26.36141968 C-23.71767854 26.71089145 -25.09518011 27.06047376 -26.47265625 27.41015625 C-27.92850042 27.77319391 -29.38453989 28.13544913 -30.84075928 28.49697876 C-33.9545402 29.27153172 -37.06704286 30.05095882 -40.17861938 30.83432007 C-45.11859794 32.07781814 -50.061275 33.3103198 -55.00463867 34.5402832 C-56.24958084 34.8500656 -56.24958084 34.8500656 -57.51967335 35.16610622 C-59.20374655 35.58513504 -60.88782892 36.00412701 -62.57192039 36.42308235 C-65.1201825 37.05737763 -67.66818475 37.69270813 -70.21614075 38.32823181 C-84.47705443 41.88312973 -98.75841643 45.34838954 -113.04876709 48.78277588 C-134.71342984 53.99051602 -156.3534448 59.2895651 -177.96941757 64.69534683 C-179.90594473 65.17960906 -181.84257419 65.6634621 -183.77920532 66.14730835 C-187.38317046 67.04836605 -190.98662616 67.95142677 -194.58984375 68.85546875 C-195.62779083 69.11525513 -196.66573792 69.3750415 -197.73513794 69.6427002 C-205.84700599 71.68339917 -213.91524137 73.84406437 -222 76 C-222 92.83 -222 109.66 -222 127 C-208.38416499 128.30151856 -208.38416499 128.30151856 -203.15625 124.65625 C-201.73840683 123.14541756 -201.73840683 123.14541756 -200.5 121.5 C-199.83097656 120.74203125 -199.83097656 120.74203125 -199.1484375 119.96875 C-197.7256162 118.34266851 -196.3652232 116.6746209 -195 115 C-190.13919731 109.26589305 -185.01666287 103.86202897 -179.6875 98.5625 C-178.97271484 97.84384766 -178.25792969 97.12519531 -177.52148438 96.38476562 C-176.49571289 95.36092773 -176.49571289 95.36092773 -175.44921875 94.31640625 C-174.83393311 93.70224854 -174.21864746 93.08809082 -173.5847168 92.45532227 C-170.66701364 89.775854 -168.49463269 89.85529693 -164.63232422 89.79467773 C-163.51131317 89.77473251 -162.39030212 89.75478729 -161.23532104 89.73423767 C-160.02071198 89.71752518 -158.80610291 89.70081268 -157.5546875 89.68359375 C-156.31453888 89.66281265 -155.07439026 89.64203156 -153.79666138 89.62062073 C-150.49888177 89.56622295 -147.2010728 89.51599905 -143.90319824 89.46777344 C-140.53827347 89.41754766 -137.1734395 89.36186723 -133.80859375 89.30664062 C-127.20580146 89.19938443 -120.60294128 89.09762811 -114 89 C-113.54351074 88.0522168 -113.08702148 87.10443359 -112.61669922 86.12792969 C-111.03965681 83.07672653 -109.71282437 81.44511951 -107.125 79.25 C-106.46757812 78.67765625 -105.81015625 78.1053125 -105.1328125 77.515625 C-99.19662459 73.29723506 -93.05002079 73.17471737 -86 74 C-78.85427332 76.05876881 -74.85590952 79.61030318 -71.05859375 85.9140625 C-68.41371334 91.12574567 -68.22932611 96.45359387 -69.4609375 102.12109375 C-71.50084502 108.27681468 -74.71847191 113.3221146 -80.58984375 116.32421875 C-88.93877048 119.58820245 -95.26435574 119.93939748 -103.5625 116.41015625 C-108.65470801 113.46418335 -111.79261375 108.81107937 -115 104 C-128.94390094 99.47571371 -150.19919941 99.44593989 -164 104 C-178.22106451 111.62739928 -189.07306988 125.89303266 -198.72251892 138.51304626 C-200.39371977 140.45827925 -201.51750765 140.95197916 -204.06298828 141.20532227 C-204.89040527 141.24197998 -205.71782227 141.2786377 -206.5703125 141.31640625 C-207.46621094 141.35830078 -208.36210937 141.40019531 -209.28515625 141.44335938 C-210.22230469 141.48267578 -211.15945313 141.52199219 -212.125 141.5625 C-213.06988281 141.60568359 -214.01476562 141.64886719 -214.98828125 141.69335938 C-217.32534172 141.7995894 -219.6626513 141.90031271 -222 142 C-222 145.96 -222 149.92 -222 154 C-201.21 154 -180.42 154 -159 154 C-157.35 151.03 -155.7 148.06 -154 145 C-146.41248061 139.48180408 -140.38335297 138.02852009 -131 139 C-123.85481214 141.04290587 -119.85118418 144.61814751 -116.05859375 150.9140625 C-113.54370147 155.86960671 -113.40965739 160.55310555 -114 166 C-115.04028476 169.17508714 -116.43085547 172.05642231 -118 175 C-118.51046875 176.08474609 -118.51046875 176.08474609 -119.03125 177.19140625 C-120.34352265 179.64133463 -121.41353082 179.97902532 -124 181 C-125.7634375 181.804375 -125.7634375 181.804375 -127.5625 182.625 C-134.5921254 185.15514346 -141.44981406 185.04493043 -148.3125 182.0625 C-151.1059597 180.73928225 -152.66974489 179.67623134 -154.04048157 176.86950684 C-155.43223581 174.06716028 -156.70428948 172.14154559 -159 170 C-163.76380467 168.72310012 -168.47792401 168.94908653 -173.3671875 169.12109375 C-174.77104601 169.13789743 -176.1749576 169.15070032 -177.57888794 169.15968323 C-181.25956065 169.19391462 -184.93699427 169.28218688 -188.61639404 169.38201904 C-192.3766294 169.4743864 -196.1373927 169.51525384 -199.8984375 169.56054688 C-207.26726711 169.65683509 -214.6327656 169.81501279 -222 170 C-222 177.92 -222 185.84 -222 194 C-215.64363216 194.20948678 -215.64363216 194.20948678 -209.28637695 194.38793945 C-201.74997626 194.70002617 -198.30736019 196.69263981 -193 202 C-192.34 202 -191.68 202 -191 202 C-190.78335693 202.53608887 -190.56671387 203.07217773 -190.34350586 203.62451172 C-187.38615531 208.85348153 -182.53889686 213.03538114 -178.3449707 217.30029297 C-177.16269438 218.51058378 -175.99030931 219.73062151 -174.82836914 220.96044922 C-166.2740657 230.37279842 -166.2740657 230.37279842 -154.40551758 233.77099609 C-149.76019088 234.21322856 -146.27972657 236.825435 -143 240 C-138.76938614 245.65733141 -137.20886799 251.30272469 -137.5859375 258.328125 C-138.68300445 265.40731174 -141.54623565 270.25291165 -147.0234375 274.80859375 C-153.51979219 278.72438067 -160.64725771 278.84534522 -168 278 C-174.45378798 275.88338432 -178.91599441 272.02547311 -182 266 C-184.54165704 259.34327917 -184.73109251 252.92437004 -183 246 C-182.01 246 -181.02 246 -180 246 C-179.87625 245.4225 -179.7525 244.845 -179.625 244.25 C-178.99274387 241.97387794 -178.08136532 240.09239794 -177 238 C-180.78379929 233.81725999 -184.61989201 229.69275175 -188.51123047 225.60986328 C-189.82367739 224.21750307 -191.12134926 222.81104692 -192.40283203 221.39013672 C-200.04302337 212.41052494 -200.04302337 212.41052494 -210.5390625 208.09375 C-214.44322298 207.95207789 -218.15553989 208.33681157 -222 209 C-223.3292883 274.02605691 -200.70726296 331.05812333 -157 379 C-155.45801971 380.728887 -153.91635099 382.45805194 -152.375 384.1875 C-137.63679887 400.53489814 -120.17786778 414.64079988 -102 427 C-101.2054541 427.54156738 -100.4109082 428.08313477 -99.59228516 428.64111328 C-88.60135601 436.10785551 -77.55420478 443.4310421 -66 450 C-65.23768066 450.4345752 -64.47536133 450.86915039 -63.68994141 451.31689453 C-52.16481073 457.84213568 -40.41904849 463.85980196 -28.5 469.625 C-27.55444244 470.08379044 -27.55444244 470.08379044 -26.58978271 470.55184937 C-16.92030508 476.15520989 -16.92030508 476.15520989 -6.46484375 477.3918457 C-5.63082031 476.99054443 -4.79679688 476.58924316 -3.9375 476.17578125 C-2.51219971 475.50699951 -2.51219971 475.50699951 -1.05810547 474.82470703 C-0.04893066 474.32567871 0.96024414 473.82665039 2 473.3125 C3.58917236 472.55235596 3.58917236 472.55235596 5.21044922 471.77685547 C8.48321169 470.20353371 11.74143172 468.60246873 15 467 C16.89783736 466.08859301 18.79624625 465.17837486 20.6953125 464.26953125 C50.65398427 449.77754594 79.86885846 431.48142935 105.0078125 409.58203125 C108.93146811 406.19621355 112.98179412 402.98725799 117.05078125 399.77734375 C117.69402344 399.19082031 118.33726562 398.60429688 119 398 C119 397.34 119 396.68 119 396 C119.84111328 395.64808594 119.84111328 395.64808594 120.69921875 395.2890625 C128.35550404 390.99946293 134.35273904 382.63656215 140 376 C140.87205078 375.01966797 140.87205078 375.01966797 141.76171875 374.01953125 C142.31472656 373.39433594 142.86773438 372.76914062 143.4375 372.125 C143.93121094 371.57070313 144.42492187 371.01640625 144.93359375 370.4453125 C146.19790607 369.03113379 146.19790607 369.03113379 146 367 C145.2955777 366.99413376 144.5911554 366.98826752 143.86538696 366.98222351 C137.18716185 366.92402598 130.50924761 366.85179761 123.83133888 366.76428509 C120.39913969 366.71978897 116.96705354 366.68048915 113.53466797 366.65356445 C109.57754927 366.62228573 105.62091431 366.56750658 101.6640625 366.51171875 C100.44699615 366.50532883 99.22992981 366.4989389 97.97598267 366.49235535 C87.2332514 366.30911295 77.89387591 364.76231131 70 357 C63.85002097 349.92752412 59.25229315 341.02743144 57.59765625 331.7421875 C57.15194831 329.85951991 57.15194831 329.85951991 55.36328125 328.9375 C54.68652344 328.628125 54.00976562 328.31875 53.3125 328 C45.19359832 323.20708846 42.89282873 313.36815926 40.625 304.75 C40.0607278 302.50428329 39.52385464 300.25565646 39 298 C30.37401776 300.04081162 21.94060521 302.49457697 13.5 305.1953125 C11.60762726 305.7955639 9.71525418 306.39581423 7.82286072 306.99600029 C5.20991086 307.82571324 2.59803336 308.65877394 -0.01385498 309.49182129 C-4.61880119 310.95986812 -9.22530616 312.42301403 -13.83203125 313.88546753 C-16.27652815 314.66187126 -18.72055678 315.43975122 -21.1640625 316.2192688 C-22.26621094 316.56988373 -23.36835938 316.92049866 -24.50390625 317.28173828 C-25.47142822 317.59023712 -26.4389502 317.89873596 -27.43579102 318.21658325 C-35.5926684 320.70867122 -42.29854161 320.91828585 -50 317 C-51 314.3125 -51 314.3125 -51 312 C-50.48050781 311.67128906 -49.96101562 311.34257812 -49.42578125 311.00390625 C-42.18007958 306.06182877 -38.18201699 299.84772996 -36.3359375 291.26171875 C-35.6334576 286.53223196 -35.30206138 281.76939014 -35 277 C-34.04738281 277.81984375 -33.09476563 278.6396875 -32.11328125 279.484375 C-30.84639231 280.57296106 -29.57946309 281.66150024 -28.3125 282.75 C-27.68666016 283.28882813 -27.06082031 283.82765625 -26.41601562 284.3828125 C-25.18138338 285.44291558 -23.93940289 286.49452541 -22.68994141 287.53710938 C-21 289 -21 289 -18.60546875 291.515625 C-14.57430016 293.81224279 -11.31948939 292.17352165 -7 291 C-3.81006977 290.07770095 -0.65045514 289.07580404 2.5078125 288.05078125 C3.86287651 287.61652328 3.86287651 287.61652328 5.24531555 287.17349243 C8.20644551 286.22362513 11.16573661 285.26816505 14.125 284.3125 C16.20308558 283.64423686 18.28129406 282.97635581 20.35961914 282.30883789 C23.59758396 281.26882733 26.83544888 280.22851692 30.0728302 279.18669128 C37.70492936 276.73170238 45.34447771 274.30108776 52.98828125 271.8828125 C56.1278945 270.88777285 59.26741592 269.89244388 62.40692139 268.89706421 C64.39987061 268.26604189 66.39322736 267.63630497 68.38702393 267.00796509 C77.65210276 264.0867696 86.90466687 261.1387531 96.03515625 257.81640625 C97.88379272 257.14460327 97.88379272 257.14460327 99.76977539 256.45922852 C103.64735189 254.70756388 106.97692629 252.81199323 109.109375 249.03515625 C109.32078125 248.38417969 109.5321875 247.73320312 109.75 247.0625 C110.09224609 246.02802734 110.09224609 246.02802734 110.44140625 244.97265625 C111.09479809 242.66522354 111.62969419 240.36995721 112 238 C105.19557479 238.63957565 98.9819248 240.78453876 92.51171875 242.91015625 C90.62256293 243.52282726 88.73340675 244.13549714 86.84423542 244.74812031 C84.8366902 245.40033728 82.83007989 246.05535699 80.82373047 246.71124268 C76.66293768 248.07137154 72.49971446 249.42394056 68.3359375 250.77490234 C66.92647879 251.23228634 65.51702445 251.68968385 64.10757446 252.14709473 C63.05681166 252.48809456 63.05681166 252.48809456 61.98482132 252.83598328 C59.84779214 253.5298362 57.7110165 254.22446468 55.5743103 254.91931152 C41.89718161 259.36605285 28.20083657 263.75185546 14.5 268.125 C11.391011 269.11771524 8.28207227 270.11058692 5.17326355 271.10386658 C3.35553624 271.68457671 1.53768569 272.26490132 -0.28031921 272.84474182 C-1.08306778 273.10109909 -1.88581635 273.35745636 -2.71289062 273.62158203 C-3.45456985 273.85770203 -4.19624908 274.09382202 -4.96040344 274.33709717 C-6.7803925 274.92862391 -8.58791117 275.55820807 -10.39331055 276.19287109 C-13.74115577 277.22948965 -15.65554721 277.0276994 -19 276 C-21.60546875 274.03125 -21.60546875 274.03125 -24.1875 271.5 C-25.14140625 270.59121094 -26.0953125 269.68242187 -27.078125 268.74609375 C-27.56345703 268.28315918 -28.04878906 267.82022461 -28.54882812 267.34326172 C-30.75426273 265.30182478 -33.09056572 263.43801251 -35.4375 261.5625 C-40.56747127 257.42188033 -45.404648 253.0273268 -50.23828125 248.55078125 C-54.82380401 244.31549644 -59.54312446 240.24559777 -64.28515625 236.1875 C-65.17714722 235.42276367 -65.17714722 235.42276367 -66.0871582 234.64257812 C-67.31724736 233.59215762 -68.55145559 232.54654101 -69.78979492 231.50585938 C-72.50986788 229.20804919 -75.06291685 226.93356606 -77.515625 224.34375 C-79.60188348 222.15242814 -81.33857161 220.44041465 -84 219 C-88.02224083 219.01293325 -91.30833359 220.50607841 -95 222 C-97.77703833 222.96374305 -100.57496715 223.85578876 -103.375 224.75 C-104.05312744 224.98420654 -104.73125488 225.21841309 -105.42993164 225.4597168 C-109.28535432 226.73210669 -112.13477146 227.47954719 -116 226 C-118.88572966 221.36222019 -120.13736925 216.97816179 -120.25 211.5625 C-120.27578125 210.82128906 -120.3015625 210.08007812 -120.328125 209.31640625 C-119.89245414 206.24077746 -118.81175375 204.52112195 -117 202 C-114.64164734 200.6036377 -114.64164734 200.6036377 -111.80737305 199.51757812 C-110.73184174 199.10386963 -109.65631042 198.69016113 -108.54818726 198.26391602 C-102.09456522 195.96504178 -95.60447425 193.81169299 -89.08203125 191.71875 C-87.55130917 191.22353093 -86.02072356 190.72788986 -84.49026489 190.2318573 C-80.43510884 188.91900011 -76.37793976 187.61247561 -72.32029343 186.30733871 C-68.954602 185.22381526 -65.59019305 184.13634037 -62.22578907 183.04882717 C-43.34700852 176.94677901 -24.45480487 170.88818331 -5.5302124 164.92953491 C6.05319393 161.28214356 17.58570254 157.50244984 29.09515381 153.6282959 C39.74166229 150.04658917 50.43417376 146.64219235 61.16616821 143.32611084 C72.70349808 139.75883199 84.16895603 135.99870519 95.61010742 132.13452148 C96.78549072 131.73821533 97.96087402 131.34190918 99.171875 130.93359375 C100.2040918 130.58353271 101.23630859 130.23347168 102.29980469 129.87280273 C111.2437125 126.98180179 118.98159728 126.88741382 127.515625 131.125 C134.87035657 136.67574081 138.33364585 143.10497905 141.078125 151.74609375 C141.41624207 152.75664322 141.75435913 153.76719269 142.10272217 154.80836487 C143.17012635 158.01235529 144.21044022 161.22438111 145.25 164.4375 C145.96175601 166.58978404 146.67528261 168.74148341 147.390625 170.89257812 C148.99754273 175.73606365 150.58656755 180.58500319 152.1605072 185.43930054 C153.21768977 188.66401771 154.31637984 191.87407774 155.42610168 195.08106995 C157.55115785 202.18656937 156.83150891 210.47014233 153.37109375 217.0078125 C149.02192481 223.3271178 144.60622432 225.90533073 137.25 227.8125 C132.8785084 229.2628204 132.8785084 229.2628204 130.13964844 232.74707031 C129.01645089 236.52606935 128.47499333 240.37625648 127.875 244.265625 C126.20953762 254.67055917 120.36435208 264.96100784 112.10546875 271.5 C103.68475719 277.16296539 93.56891286 279.87721941 84 283 C84.00785522 284.62627319 84.00785522 284.62627319 84.01586914 286.28540039 C84.03405333 290.3314531 84.04548083 294.37750223 84.05493164 298.42358398 C84.05994129 300.17033497 84.06675085 301.9170818 84.07543945 303.66381836 C84.08765319 306.18344146 84.09326213 308.70300881 84.09765625 311.22265625 C84.10281754 311.99585709 84.10797882 312.76905792 84.11329651 313.56568909 C84.11365042 317.03422235 84.02377083 319.90421484 83.18139648 323.29858398 C82.65638974 328.59393745 82.65638974 328.59393745 88 339 C109.12 339 130.24 339 152 339 C152.33 331.74 152.66 324.48 153 317 C153.99 315.35 154.98 313.7 156 312 C156 311.34 156 310.68 156 310 C160.68697724 307.56971551 164.74990199 305.7822122 170.08203125 305.5859375 C171.01337891 305.54726563 171.94472656 305.50859375 172.90429688 305.46875 C174.34385742 305.42234375 174.34385742 305.42234375 175.8125 305.375 C176.79154297 305.33632813 177.77058594 305.29765625 178.77929688 305.2578125 C181.18601374 305.16389184 183.59273012 305.07821799 186 305 C200.75796649 271.26750517 204.81656461 237.02341487 204.50696969 200.64952707 C204.47505882 196.24546912 204.4727258 191.84138108 204.46684265 187.43722534 C204.45148965 179.15072461 204.41072121 170.86456578 204.3600952 162.57821357 C204.30361309 153.121882 204.27656948 143.66553143 204.25161803 134.20907235 C204.19978166 114.8058566 204.11221317 95.40295607 204 76 C196.97936213 74.2383965 189.95822431 72.47879574 182.93676758 70.72045898 C180.55807667 70.12454444 178.17949233 69.52820433 175.80102539 68.93139648 C161.67716095 65.3877639 147.5441517 61.89587773 133.37002373 58.55853844 C103.91521681 51.61698691 74.52190047 44.43389064 45.16211319 37.102108 C42.76671171 36.50417155 40.3710974 35.90709463 37.97543335 35.31021118 C34.15515163 34.35810113 30.33556634 33.40324321 26.51649284 32.4462986 C25.10853565 32.09380728 23.70039756 31.74203748 22.29205513 31.39108849 C14.19703947 29.37271787 6.17457388 27.2177511 -1.79388428 24.7376709 C-7.66475907 23.38688576 -12.72510232 23.96255207 -18.51196289 25.41430664 Z " fill="#0488C9" transform="translate(521,154)"/>
<path d="M0 0 C1.98157492 5.72709073 3.95689091 11.45628775 5.92651367 17.1875 C6.59700966 19.13567862 7.26919284 21.08327744 7.94311523 23.03027344 C8.91316968 25.83376658 9.87707759 28.63930937 10.83984375 31.4453125 C11.14091537 32.31116974 11.441987 33.17702698 11.75218201 34.06912231 C13.22143225 38.37071022 14.42931947 42.46679759 15 47 C8.15810672 50.25262255 1.18752841 52.6965873 -6.02734375 54.984375 C-7.18914154 55.35723633 -8.35093933 55.73009766 -9.54794312 56.11425781 C-12.69092127 57.12190119 -15.83527217 58.12510595 -18.98031998 59.12626648 C-22.27800677 60.17720598 -25.57384317 61.23391701 -28.86987305 62.29003906 C-34.27327555 64.02064212 -39.67772237 65.74794365 -45.08300781 67.47265625 C-52.47125277 69.83016589 -59.85707672 72.19518955 -67.2421875 74.5625 C-73.58743243 76.59590467 -79.93277121 78.62901217 -86.27905273 80.65917969 C-87.2312117 80.96382141 -88.18337067 81.26846313 -89.16438293 81.58233643 C-91.02134378 82.17550591 -92.87874398 82.76730202 -94.73661804 83.35760498 C-99.55386018 84.88930149 -104.36071593 86.44694526 -109.15771484 88.04101562 C-110.16448776 88.3716803 -111.17126068 88.70234497 -112.20854187 89.04302979 C-114.13564728 89.67635967 -116.06014851 90.31768748 -117.98152161 90.96820068 C-118.84379868 91.24971985 -119.70607574 91.53123901 -120.59448242 91.82128906 C-121.35081467 92.07364319 -122.10714691 92.32599731 -122.88639832 92.58599854 C-125.33001445 93.06464154 -126.67728985 92.86623218 -129 92 C-131.12860507 90.38479832 -133.12328708 88.75908105 -135.125 87 C-135.69976074 86.5045166 -136.27452148 86.0090332 -136.86669922 85.49853516 C-141.14858889 81.7921619 -145.345179 77.99328133 -149.53515625 74.18359375 C-153.03508639 71.08302172 -156.67029652 68.15939683 -160.3046875 65.21875 C-164.30498692 61.9257499 -168.16109003 58.47871594 -172 55 C-169.58388553 52.58388553 -167.77906751 52.11586923 -164.53051758 51.07080078 C-163.37023041 50.69429886 -162.20994324 50.31779694 -161.01449585 49.92988586 C-159.72455143 49.51822419 -158.43456174 49.10670435 -157.14453125 48.6953125 C-155.79513622 48.26016099 -154.44590687 47.82449537 -153.09683228 47.38835144 C-149.43567246 46.2065533 -145.77203921 45.0326023 -142.10786057 43.86020279 C-139.0395665 42.8774298 -135.97271331 41.89020407 -132.90586567 40.90292835 C-122.6083228 37.58813897 -112.30527576 34.29066107 -102 31 C-101.25430252 30.76188347 -100.50860504 30.52376694 -99.74031067 30.27843475 C-82.92879776 24.91122398 -66.10930403 19.56948017 -49.28179932 14.25262451 C-42.89269843 12.2335181 -36.50590994 10.20750992 -30.12309265 8.16862488 C-26.76778193 7.0972407 -23.41116978 6.02998117 -20.05422974 4.9637146 C-18.58458695 4.49581452 -17.11554808 4.02601236 -15.64718628 3.55410767 C-13.71045967 2.93192733 -11.77132234 2.31726538 -9.83203125 1.703125 C-8.78764893 1.36958008 -7.7432666 1.03603516 -6.66723633 0.69238281 C-4 0 -4 0 0 0 Z " fill="#FDFEFE" transform="translate(638,309)"/>
<path d="M0 0 C51.8336933 0 51.8336933 0 62 9 C69.19305571 17.7333246 70.96675454 25.97856324 70.24707031 37.05859375 C69.36930995 43.95577797 65.24031112 49.65437615 60 54 C54.59459459 58 54.59459459 58 51 58 C56.79236902 67.61357063 62.62136522 77.16436485 69.00146484 86.40258789 C72 90.79281986 72 90.79281986 72 93 C68.4597564 93.26275596 64.92201867 93.42160329 61.375 93.5625 C60.37597656 93.63791016 59.37695312 93.71332031 58.34765625 93.79101562 C51.1132639 94.0066101 51.1132639 94.0066101 48.16772461 91.34326172 C46.55269702 88.97159463 45.26962944 86.57283082 44 84 C42.47903903 81.25495411 40.93508414 78.52374409 39.38867188 75.79296875 C38.32911325 73.91543612 37.29810783 72.02152944 36.29492188 70.11328125 C35.77091797 69.20964844 35.24691406 68.30601562 34.70703125 67.375 C34.2581958 66.55773437 33.80936035 65.74046875 33.34692383 64.8984375 C30.06978022 61.88779749 30.06978022 61.88779749 20 62 C20 72.23 20 82.46 20 93 C13.4 93 6.8 93 0 93 C0 62.31 0 31.62 0 0 Z " fill="#2C3A46" transform="translate(427,727)"/>
<path d="M0 0 C0.87624023 0.00757324 1.75248047 0.01514648 2.65527344 0.02294922 C13.00704266 0.28586957 21.55349374 3.18078284 29.125 10.4375 C37.125 19.66689866 37.125 19.66689866 37.125 25.4375 C35.06909546 26.30742154 33.00494664 27.15787689 30.9375 28 C29.78894531 28.47566406 28.64039063 28.95132813 27.45703125 29.44140625 C24.04619717 30.46105771 22.42648897 30.6851215 19.125 29.4375 C17.79166667 27.4375 16.45833333 25.4375 15.125 23.4375 C9.8283251 19.7304955 5.95767819 18.80106953 -0.4375 18.9375 C-1.53094727 18.91429687 -1.53094727 18.91429687 -2.64648438 18.890625 C-8.71267582 18.93430595 -12.16988321 20.96222973 -16.66796875 25.078125 C-24.18924328 33.7581393 -24.63765595 42.39802089 -24.03466797 53.45947266 C-23.3554798 61.87351325 -20.23870478 67.88589981 -13.875 73.4375 C-7.69817128 77.39067038 -1.04236867 77.0972956 6.125 76.4375 C9.95851311 75.58044074 12.49464995 74.03283061 15.375 71.3125 C17.76971887 67.61906182 17.76971887 67.61906182 20.125 59.4375 C13.525 59.4375 6.925 59.4375 0.125 59.4375 C0.125 54.1575 0.125 48.8775 0.125 43.4375 C12.665 43.4375 25.205 43.4375 38.125 43.4375 C38.186875 47.02625 38.24875 50.615 38.3125 54.3125 C38.35346802 55.97708252 38.35346802 55.97708252 38.39526367 57.67529297 C38.48231345 68.23546044 36.34041402 76.55170521 29.125 84.4375 C19.779547 93.37662896 9.07665865 95.90710056 -3.52905273 95.86694336 C-14.95331661 95.58664053 -23.54911724 91.84813201 -31.72265625 83.8203125 C-42.82154983 71.53297115 -45.53957445 57.75155024 -45.015625 41.67285156 C-44.18615714 28.48776875 -38.37318871 18.32530355 -28.875 9.4375 C-20.06188395 2.84838345 -10.94577884 -0.13307296 0 0 Z " fill="#2A3844" transform="translate(762.875,725.5625)"/>
<path d="M0 0 C6.27 0 12.54 0 19 0 C19 12.54 19 25.08 19 38 C30.88 38 42.76 38 55 38 C55 25.46 55 12.92 55 0 C61.27 0 67.54 0 74 0 C74 30.69 74 61.38 74 93 C67.73 93 61.46 93 55 93 C55 80.79 55 68.58 55 56 C43.12 56 31.24 56 19 56 C19 68.21 19 80.42 19 93 C12.73 93 6.46 93 0 93 C0 62.31 0 31.62 0 0 Z " fill="#2C3B48" transform="translate(821,727)"/>
<path d="M0 0 C6.27 0 12.54 0 19 0 C19.01401855 2.74654907 19.01401855 2.74654907 19.02832031 5.54858398 C19.06397495 11.62762477 19.11785296 17.70629534 19.18390274 23.785079 C19.22325618 27.46733202 19.25550341 31.14935026 19.27099609 34.83178711 C19.28624368 38.3917766 19.32082954 41.95112009 19.36830902 45.51082039 C19.3901637 47.51626348 19.39246675 49.52188927 19.39434814 51.52745056 C19.53099465 60.12463052 20.37374512 67.08746184 26.375 73.5625 C32.65320222 76.05213192 39.84904272 76.22329536 46.359375 74.3046875 C50.57775261 72.15944419 52.40563301 69.34022125 54 65 C54.89982799 61.26870012 55.14882897 57.75803439 55.20532227 53.92456055 C55.22526749 52.72369308 55.24521271 51.52282562 55.26576233 50.28556824 C55.28247482 48.99894791 55.29918732 47.71232758 55.31640625 46.38671875 C55.33699635 45.04864388 55.35799335 43.71057521 55.37937927 42.37251282 C55.43438775 38.86271206 55.48388994 35.35285468 55.53222656 31.84295654 C55.58259728 28.25658165 55.6382018 24.67028827 55.69335938 21.08398438 C55.80068105 14.05605903 55.90169885 7.02805815 56 0 C62.27 0 68.54 0 75 0 C75.06805119 8.30224557 75.1229737 16.60427058 75.15543652 24.90672112 C75.17102498 28.76279014 75.19213675 32.61865678 75.22631836 36.47460938 C75.25915757 40.20289191 75.27690416 43.93098101 75.28463173 47.65939713 C75.29013155 49.07461716 75.30087012 50.48982783 75.31719017 51.90496445 C75.46110353 64.913276 73.86078798 75.05737162 65 85 C56.72497394 92.17269595 47.45357443 94.57699925 36.6875 94.5 C35.76759277 94.49500488 34.84768555 94.49000977 33.89990234 94.48486328 C26.44918331 94.29449249 20.41650074 92.95754569 14 89 C13.319375 88.58878906 12.63875 88.17757812 11.9375 87.75390625 C5.56856163 83.12819024 1.48066901 74.62759113 0 67 C-0.08747283 64.79991562 -0.11766415 62.59732653 -0.11352539 60.39550781 C-0.11367142 59.74143448 -0.11381744 59.08736115 -0.1139679 58.41346741 C-0.11327341 56.25998574 -0.10550283 54.10659148 -0.09765625 51.953125 C-0.09579042 50.45668586 -0.09436729 48.96024612 -0.09336853 47.46380615 C-0.08955635 43.53141585 -0.07973717 39.59906268 -0.06866455 35.66668701 C-0.05842249 31.65149437 -0.05386492 27.6362957 -0.04882812 23.62109375 C-0.03811372 15.74737693 -0.02052745 7.87369736 0 0 Z " fill="#2A3844" transform="translate(330,727)"/>
<path d="M0 0 C5.70086112 4.77281396 10.86277982 10.26320779 13.625 17.25 C13.625 18.24 13.625 19.23 13.625 20.25 C11.21232675 21.117242 8.79595531 21.96896936 6.375 22.8125 C5.69308594 23.05935547 5.01117188 23.30621094 4.30859375 23.56054688 C1.5954723 24.49565184 -0.78681 25.27696287 -3.67578125 25.14453125 C-5.9534558 23.94547959 -6.89829483 22.51393635 -8.3125 20.375 C-11.6119566 15.72916564 -14.76890392 13.39670147 -20.375 12.25 C-29.13952976 11.41867604 -36.10610564 12.02219011 -43.375 17.25 C-48.73502141 22.03086656 -52.3393777 28.00713994 -52.80859375 35.265625 C-52.83237344 36.6768836 -52.83303281 38.08869042 -52.8125 39.5 C-52.80347656 40.24362793 -52.79445312 40.98725586 -52.78515625 41.75341797 C-52.52187463 50.1948849 -50.93057409 57.26715214 -44.625 63.25 C-37.112282 69.00882979 -29.78007003 70.36229475 -20.375 69.25 C-14.62534584 67.66094253 -10.60097529 65.41156046 -7.375 60.25 C-6.66614106 58.93861096 -5.98043548 57.61222983 -5.375 56.25 C1.3022895 56.85702632 7.32627996 59.02631394 13.625 61.25 C12.30662607 69.35659716 7.14902378 76.35125934 0.625 81.25 C-12.06651691 88.20683149 -25.41063892 90.49416747 -39.71484375 87.56640625 C-42.40641052 86.63574973 -44.85113129 85.56697834 -47.375 84.25 C-48.24511719 83.80269531 -49.11523438 83.35539063 -50.01171875 82.89453125 C-61.76601973 76.34093743 -69.07033683 66.87919718 -72.77294922 53.94165039 C-73.74944183 49.57594439 -73.86450908 45.33457194 -73.8125 40.875 C-73.80492676 39.9581543 -73.79735352 39.04130859 -73.78955078 38.09667969 C-73.4744831 25.09381365 -68.93559902 15.05721612 -60.125 5.5625 C-44.68398961 -9.06403951 -17.89569726 -12.47585752 0 0 Z " fill="#293743" transform="translate(299.375,732.75)"/>
<path d="M0 0 C20.13 0 40.26 0 61 0 C61 5.61 61 11.22 61 17 C47.14 17 33.28 17 19 17 C19 24.26 19 31.52 19 39 C31.54 39 44.08 39 57 39 C57 43.95 57 48.9 57 54 C44.46 54 31.92 54 19 54 C19 61.26 19 68.52 19 76 C32.86 76 46.72 76 61 76 C61 81.61 61 87.22 61 93 C40.87 93 20.74 93 0 93 C0 62.31 0 31.62 0 0 Z " fill="#2B3A45" transform="translate(518,727)"/>
<path d="M0 0 C20.13 0 40.26 0 61 0 C61 5.61 61 11.22 61 17 C47.14 17 33.28 17 19 17 C19 24.26 19 31.52 19 39 C31.21 39 43.42 39 56 39 C56 43.95 56 48.9 56 54 C43.79 54 31.58 54 19 54 C19 61.26 19 68.52 19 76 C32.86 76 46.72 76 61 76 C61 81.61 61 87.22 61 93 C40.87 93 20.74 93 0 93 C0 62.31 0 31.62 0 0 Z " fill="#2B3A46" transform="translate(152,727)"/>
<path d="M0 0 C7.42905073 4.40369831 11.42543569 9.28259294 14.484375 17.47265625 C14.484375 18.46265625 14.484375 19.45265625 14.484375 20.47265625 C5.574375 22.94765625 5.574375 22.94765625 -3.515625 25.47265625 C-4.835625 22.83265625 -6.155625 20.19265625 -7.515625 17.47265625 C-11.6253149 13.61203846 -15.78294161 13.13531789 -21.22265625 13.1796875 C-24.72037973 13.62658573 -26.87428469 15.22751698 -29.515625 17.47265625 C-31.06149376 20.56439377 -30.80922021 23.06695177 -30.515625 26.47265625 C-26.85686159 32.29341622 -18.42634929 33.89538235 -12.2109375 35.8125 C-2.01709273 38.98548951 6.99719536 41.97586119 13.984375 50.53515625 C17.20358138 56.83943542 18.6517862 62.14376932 16.76171875 69.15234375 C13.94259422 77.57547696 10.4867917 82.52112743 2.9375 87.296875 C-3.94249287 90.5944512 -10.27395425 92.00835542 -17.890625 91.91015625 C-18.71989502 91.90258301 -19.54916504 91.89500977 -20.40356445 91.88720703 C-30.49852497 91.61695601 -39.20981417 88.66250183 -46.515625 81.47265625 C-50.73134743 76.40537891 -52.16567822 72.00499612 -52.515625 65.47265625 C-50.28894735 64.79772284 -48.05916523 64.13302581 -45.828125 63.47265625 C-44.58675781 63.10140625 -43.34539062 62.73015625 -42.06640625 62.34765625 C-39.0146231 61.59562168 -36.62664138 61.28230726 -33.515625 61.47265625 C-33.29519531 62.39498047 -33.29519531 62.39498047 -33.0703125 63.3359375 C-31.62122993 68.76102372 -31.62122993 68.76102372 -27.578125 72.47265625 C-26.5675 72.80265625 -25.556875 73.13265625 -24.515625 73.47265625 C-23.87625 73.69953125 -23.236875 73.92640625 -22.578125 74.16015625 C-16.36103636 75.10213938 -11.03568586 74.48477377 -5.515625 71.47265625 C-2.99341849 68.42499004 -3.27020561 65.31756002 -3.515625 61.47265625 C-3.845625 60.48265625 -4.175625 59.49265625 -4.515625 58.47265625 C-6.80071302 57.31465034 -6.80071302 57.31465034 -9.515625 56.47265625 C-10.3420752 56.18680664 -11.16852539 55.90095703 -12.02001953 55.60644531 C-12.88739746 55.31995117 -13.75477539 55.03345703 -14.6484375 54.73828125 C-43.600273 45.04341163 -43.600273 45.04341163 -49.515625 34.47265625 C-52.37225908 28.36984707 -52.49588022 21.70312043 -50.328125 15.34765625 C-46.2618833 5.94680388 -40.19969602 1.21773183 -30.73828125 -2.66796875 C-20.70167787 -5.34439632 -9.28839488 -4.60570962 0 0 Z " fill="#2A3743" transform="translate(116.515625,729.52734375)"/>
<path d="M0 0 C6.90584297 4.40410363 12.08284542 9.55002554 15.0703125 17.3203125 C15.0703125 18.6403125 15.0703125 19.9603125 15.0703125 21.3203125 C12.82226248 21.99352534 10.57179026 22.65865373 8.3203125 23.3203125 C7.06734375 23.6915625 5.814375 24.0628125 4.5234375 24.4453125 C1.0703125 25.3203125 1.0703125 25.3203125 -2.9296875 25.3203125 C-3.25839844 24.50626953 -3.25839844 24.50626953 -3.59375 23.67578125 C-5.18984388 20.07483774 -6.37786 17.7407525 -9.5546875 15.3203125 C-14.57752606 13.83206404 -19.91459258 13.02812896 -24.87109375 15.15234375 C-27.14414751 16.61476629 -28.71149899 17.88393548 -29.9296875 20.3203125 C-30.47321194 25.22573055 -30.47321194 25.22573055 -28.27246094 29.41040039 C-25.6090386 31.58171687 -23.40071509 32.46230759 -20.1328125 33.50390625 C-19.00875 33.87451172 -17.8846875 34.24511719 -16.7265625 34.62695312 C-15.55609375 35.00013672 -14.385625 35.37332031 -13.1796875 35.7578125 C5.61756026 41.76831639 5.61756026 41.76831639 11.9453125 49.3828125 C12.49960937 50.03378906 13.05390625 50.68476562 13.625 51.35546875 C18.17570496 57.54196765 17.84567351 63.84130944 17.0703125 71.3203125 C15.01994365 78.18538676 11.19824899 83.56827461 5.0703125 87.3203125 C-6.4660385 92.78120315 -19.85367485 94.91165673 -32.1796875 90.5703125 C-40.40770218 86.96506027 -47.00681774 81.94176701 -50.8046875 73.6328125 C-51.9296875 70.3203125 -51.9296875 70.3203125 -51.9296875 66.3203125 C-49.70300985 65.64537909 -47.47322773 64.98068206 -45.2421875 64.3203125 C-44.00082031 63.9490625 -42.75945313 63.5778125 -41.48046875 63.1953125 C-38.4286856 62.44327793 -36.04070388 62.12996351 -32.9296875 62.3203125 C-32.5584375 63.5578125 -32.1871875 64.7953125 -31.8046875 66.0703125 C-30.18502842 70.4279667 -28.09642237 72.15013809 -23.9296875 74.3203125 C-17.78290117 76.36924128 -12.52751129 75.49483099 -6.59375 73.3671875 C-4.36766222 71.96673791 -3.77874219 70.79672202 -2.9296875 68.3203125 C-2.89991006 65.94729861 -2.89991006 65.94729861 -3.3046875 63.5703125 C-3.41554688 62.77109375 -3.52640625 61.971875 -3.640625 61.1484375 C-3.78371094 60.24351562 -3.78371094 60.24351562 -3.9296875 59.3203125 C-11.20760263 56.37789958 -18.56861436 53.74431961 -26.0546875 51.3828125 C-35.10282754 48.36286408 -44.45321344 44.07531193 -49.02734375 35.1875 C-51.32753652 29.04652023 -52.25230002 22.96157906 -49.98046875 16.70703125 C-45.74039221 7.6784771 -39.4036537 2.03276257 -30.25390625 -1.80078125 C-21.03348431 -4.23861314 -8.62031133 -4.2951377 0 0 Z " fill="#293743" transform="translate(645.9296875,728.6796875)"/>
<path d="M0 0 C23.1 0 46.2 0 70 0 C70 5.61 70 11.22 70 17 C61.75 17 53.5 17 45 17 C45 42.08 45 67.16 45 93 C38.73 93 32.46 93 26 93 C26 67.92 26 42.84 26 17 C17.42 17 8.84 17 0 17 C0 11.39 0 5.78 0 0 Z " fill="#2D3C48" transform="translate(910,727)"/>
<path d="M0 0 C6.6 0 13.2 0 20 0 C20 30.69 20 61.38 20 93 C13.4 93 6.8 93 0 93 C0 62.31 0 31.62 0 0 Z " fill="#2F3D48" transform="translate(681,727)"/>
<path d="M0 0 C4.60140405 0.35707545 7.09099554 2.33374313 10.5625 5.25 C11.49191406 6.01828125 12.42132813 6.7865625 13.37890625 7.578125 C25.48108712 18.76046798 29.9095591 40.51627888 31.203125 56.51171875 C31.27476648 59.83707741 31.18816768 62.47313051 30.0625 65.625 C27.08066443 67.61289038 24.88368639 67.36139389 21.40625 66.796875 C12.24464511 63.76283702 6.22353923 53.53392622 1.875 45.5 C-3.7544774 33.7077263 -6.9715899 20.07628008 -5 7 C-3.49625708 4.4042533 -2.1239649 2.1239649 0 0 Z " fill="#0487C9" transform="translate(435,389)"/>
<path d="M0 0 C3.17625 -0.061875 6.3525 -0.12375 9.625 -0.1875 C11.1092749 -0.22846802 11.1092749 -0.22846802 12.62353516 -0.27026367 C17.84778777 -0.31936975 21.50207628 0.03418155 26 3 C29.26331306 6.52094303 30.28814732 9.30393216 30.5 14 C30.28814732 18.69606784 29.26331306 21.47905697 26 25 C20.617789 28.54889538 15.82634187 28.35866552 9.625 28.1875 C4.860625 28.0946875 4.860625 28.0946875 0 28 C0 18.76 0 9.52 0 0 Z " fill="#FDFDFD" transform="translate(447,744)"/>
<path d="M0 0 C6.27 0 12.54 0 19 0 C19 12.54 19 25.08 19 38 C30.88 38 42.76 38 55 38 C55 25.46 55 12.92 55 0 C61.27 0 67.54 0 74 0 C74 30.69 74 61.38 74 93 C67.73 93 61.46 93 55 93 C55 92.34 55 91.68 55 91 C60.94 91 66.88 91 73 91 C73 61.63 73 32.26 73 2 C67.72 2 62.44 2 57 2 C57.02320313 4.57554687 57.04640625 7.15109375 57.0703125 9.8046875 C57.08590072 12.29345202 57.09805018 14.78221114 57.10986328 17.27099609 C57.11993376 19.00344265 57.13359089 20.73587216 57.15087891 22.46826172 C57.17508162 24.95544639 57.18647239 27.44240675 57.1953125 29.9296875 C57.20563507 30.70682098 57.21595764 31.48395447 57.22659302 32.28463745 C57.22699271 34.19125493 57.1223214 36.09731036 57 38 C54.45434588 40.54565412 52.80824286 40.2472401 49.3359375 40.27789307 C48.17964844 40.27182037 48.17964844 40.27182037 47 40.265625 C46.20851563 40.26753845 45.41703125 40.2694519 44.6015625 40.27142334 C42.9270801 40.27278518 41.25258715 40.26908882 39.578125 40.26074219 C37.01017619 40.2500424 34.44292697 40.26063725 31.875 40.2734375 C30.24999845 40.2721159 28.62499734 40.26955351 27 40.265625 C26.22914063 40.26967346 25.45828125 40.27372192 24.6640625 40.27789307 C19.22992132 40.22992132 19.22992132 40.22992132 17 38 C16.82482253 35.27514272 16.76850867 32.65340638 16.8046875 29.9296875 C16.8075174 29.13345978 16.81034729 28.33723206 16.81326294 27.51687622 C16.8244736 24.96943237 16.84957938 22.42233789 16.875 19.875 C16.88502867 18.14974465 16.89415472 16.42448381 16.90234375 14.69921875 C16.92271582 10.46590238 16.96186177 6.23334305 17 2 C11.72 2 6.44 2 1 2 C1 31.37 1 60.74 1 91 C6.28 91 11.56 91 17 91 C16.97679687 88.58042969 16.95359375 86.16085937 16.9296875 83.66796875 C16.91409039 81.32479375 16.901946 78.98162452 16.89013672 76.63842773 C16.88007858 75.00982068 16.86643042 73.38123168 16.84912109 71.75268555 C16.82486426 69.41190128 16.81351517 67.07135576 16.8046875 64.73046875 C16.79436493 64.00224411 16.78404236 63.27401947 16.77340698 62.52372742 C16.77257751 58.78724931 16.87116704 57.19324944 19 54 C21.76628915 53.7332384 24.30619631 53.65195811 27.0703125 53.70703125 C28.26465408 53.71339851 28.26465408 53.71339851 29.48312378 53.71989441 C32.03075729 53.73671166 34.57760489 53.77436821 37.125 53.8125 C38.85024901 53.82754295 40.57551039 53.84123204 42.30078125 53.85351562 C46.53415782 53.88662499 50.76694559 53.93842715 55 54 C54.505 54.99 54.505 54.99 54 56 C42.45 56 30.9 56 19 56 C19 68.21 19 80.42 19 93 C12.73 93 6.46 93 0 93 C0 62.31 0 31.62 0 0 Z " fill="#101B24" transform="translate(821,727)"/>
<path d="M0 0 C23.1 0 46.2 0 70 0 C70 5.61 70 11.22 70 17 C61.75 17 53.5 17 45 17 C45 42.08 45 67.16 45 93 C38.73 93 32.46 93 26 93 C26 67.92 26 42.84 26 17 C17.42 17 8.84 17 0 17 C0 11.39 0 5.78 0 0 Z M2 2 C2 6.62 2 11.24 2 16 C10.25 16.33 18.5 16.66 27 17 C27.495 53.63 27.495 53.63 28 91 C33.28 91 38.56 91 44 91 C44.33 66.58 44.66 42.16 45 17 C52.92 16.67 60.84 16.34 69 16 C69 11.38 69 6.76 69 2 C46.89 2 24.78 2 2 2 Z " fill="#212A33" transform="translate(910,727)"/>
<path d="M0 0 C20.13 0 40.26 0 61 0 C61 5.61 61 11.22 61 17 C47.14 17 33.28 17 19 17 C19 16.67 19 16.34 19 16 C32.2 16 45.4 16 59 16 C59 11.38 59 6.76 59 2 C39.86 2 20.72 2 1 2 C1 31.37 1 60.74 1 91 C20.14 91 39.28 91 59 91 C59 86.38 59 81.76 59 77 C45.8 77 32.6 77 19 77 C19 76.67 19 76.34 19 76 C32.86 76 46.72 76 61 76 C61 81.61 61 87.22 61 93 C40.87 93 20.74 93 0 93 C0 62.31 0 31.62 0 0 Z " fill="#101922" transform="translate(152,727)"/>
<path d="M0 0 C29.205 0.495 29.205 0.495 59 1 C59 1.33 59 1.66 59 2 C39.86 2 20.72 2 1 2 C1 31.37 1 60.74 1 91 C20.14 91 39.28 91 59 91 C59 86.38 59 81.76 59 77 C45.8 77 32.6 77 19 77 C19 76.67 19 76.34 19 76 C32.86 76 46.72 76 61 76 C61 81.61 61 87.22 61 93 C40.87 93 20.74 93 0 93 C0 62.31 0 31.62 0 0 Z " fill="#111A24" transform="translate(518,727)"/>
<path d="M0 0 C43 0 43 0 49 2 C49 2.33 49 2.66 49 3 C33.49 2.67 17.98 2.34 2 2 C2 31.37 2 60.74 2 91 C7.28 91 12.56 91 18 91 C18 81.43 18 71.86 18 62 C18.33 62 18.66 62 19 62 C19 71.9 19 81.8 19 92 C9.595 92.495 9.595 92.495 0 93 C0 62.31 0 31.62 0 0 Z " fill="#1D2A36" transform="translate(427,727)"/>
<path d="M0 0 C0.33 0 0.66 0 1 0 C1 29.37 1 58.74 1 89 C6.28 89 11.56 89 17 89 C16.97679687 86.58042969 16.95359375 84.16085937 16.9296875 81.66796875 C16.91409039 79.32479375 16.901946 76.98162452 16.89013672 74.63842773 C16.88007858 73.00982068 16.86643042 71.38123168 16.84912109 69.75268555 C16.82486426 67.41190128 16.81351517 65.07135576 16.8046875 62.73046875 C16.79436493 62.00224411 16.78404236 61.27401947 16.77340698 60.52372742 C16.77257751 56.78724931 16.87116704 55.19324944 19 52 C21.76628915 51.7332384 24.30619631 51.65195811 27.0703125 51.70703125 C28.26465408 51.71339851 28.26465408 51.71339851 29.48312378 51.71989441 C32.03075729 51.73671166 34.57760489 51.77436821 37.125 51.8125 C38.85024901 51.82754295 40.57551039 51.84123204 42.30078125 51.85351562 C46.53415782 51.88662499 50.76694559 51.93842715 55 52 C54.505 52.99 54.505 52.99 54 54 C42.45 54 30.9 54 19 54 C19 66.21 19 78.42 19 91 C12.73 91 6.46 91 0 91 C0 60.97 0 30.94 0 0 Z " fill="#09111A" transform="translate(821,729)"/>
<path d="M0 0 C6.27 0 12.54 0 19 0 C19.04517134 7.77120855 19.08187027 15.54234547 19.10362434 23.31364918 C19.11406482 26.92212105 19.12822873 30.53049849 19.15087891 34.13891602 C19.17259804 37.62076942 19.18456664 41.10253195 19.18975449 44.58444786 C19.19525227 46.56038283 19.21086668 48.53628122 19.22659302 50.51216125 C19.22674408 51.71317978 19.22689514 52.9141983 19.22705078 54.15161133 C19.231492 55.21084305 19.23593323 56.27007477 19.24050903 57.36140442 C19 60 19 60 17 63 C17 42.87 17 22.74 17 2 C11.72 2 6.44 2 1 2 C1 21.8 1 41.6 1 62 C0.67 62 0.34 62 0 62 C0 41.54 0 21.08 0 0 Z " fill="#101C26" transform="translate(386,727)"/>
<path d="M0 0 C3.71317907 1.14770989 5.2692056 1.85342428 7.4375 5.0625 C8.07406938 8.80234509 7.69334708 10.57212644 5.9375 13.9375 C2.89581021 16.52293632 1.23742767 16.75260681 -2.65625 16.4765625 C-4.5625 16.0625 -4.5625 16.0625 -7.0625 14.5 C-9.17256839 11.07113886 -9.18741523 9.02029649 -8.5625 5.0625 C-5.90798953 1.20139386 -4.7398766 0.08315573 0 0 Z " fill="#F8FCFD" transform="translate(384.5625,306.9375)"/>
<path d="M0 0 C2.375 1.625 2.375 1.625 4 4 C4.55802097 7.90614682 4.58392818 10.05111671 2.5 13.4375 C-1.02126244 15.63828902 -3.95439643 15.80414661 -8 15 C-10.5 13.4375 -10.5 13.4375 -12 11 C-12.5 7.5 -12.5 7.5 -12 4 C-8.27771943 -0.71488872 -5.77958862 -1.50269304 0 0 Z " fill="#F7FCFD" transform="translate(364,402)"/>
<path d="M0 0 C4.0743356 0.84881992 5.54405875 2.30225596 8 5.625 C8.625 8.625 8.625 8.625 8 11.625 C5.54405875 14.94774404 4.0743356 16.40118008 0 17.25 C-4.0743356 16.40118008 -5.54405875 14.94774404 -8 11.625 C-8.625 8.625 -8.625 8.625 -8 5.625 C-5.54405875 2.30225596 -4.0743356 0.84881992 0 0 Z " fill="#F9FDFE" transform="translate(429,241.375)"/>
<path d="M0 0 C20.13 0 40.26 0 61 0 C61 5.61 61 11.22 61 17 C47.14 17 33.28 17 19 17 C19 16.67 19 16.34 19 16 C32.2 16 45.4 16 59 16 C59 11.38 59 6.76 59 2 C39.86 2 20.72 2 1 2 C0.67 1.34 0.34 0.68 0 0 Z " fill="#1A2630" transform="translate(152,727)"/>
<path d="M0 0 C6.27 0 12.54 0 19 0 C19.33 12.54 19.66 25.08 20 38 C31.55 38.33 43.1 38.66 55 39 C55 39.33 55 39.66 55 40 C49.90968245 40.04936158 44.81950357 40.08570105 39.72900391 40.10986328 C37.99655735 40.11993376 36.26412784 40.13359089 34.53173828 40.15087891 C32.04455361 40.17508162 29.55759325 40.18647239 27.0703125 40.1953125 C26.29317902 40.20563507 25.51604553 40.21595764 24.71536255 40.22659302 C22.80874507 40.22699271 20.90268964 40.1223214 19 40 C17 38 17 38 16.77294922 34.46826172 C16.77326637 32.95536669 16.78459367 31.44244912 16.8046875 29.9296875 C16.8075174 29.13345978 16.81034729 28.33723206 16.81326294 27.51687622 C16.8244736 24.96943237 16.84957938 22.42233789 16.875 19.875 C16.88502867 18.14974465 16.89415472 16.42448381 16.90234375 14.69921875 C16.92271582 10.46590238 16.96186177 6.23334305 17 2 C11.39 2 5.78 2 0 2 C0 1.34 0 0.68 0 0 Z " fill="#1C2935" transform="translate(821,727)"/>
<path d="M0 0 C12.54 0 25.08 0 38 0 C38 6.93 38 13.86 38 21 C37.67 21 37.34 21 37 21 C37 14.4 37 7.8 37 1 C25.45 1 13.9 1 2 1 C2 5.29 2 9.58 2 14 C7.94 14 13.88 14 20 14 C19.67 14.66 19.34 15.32 19 16 C12.73 16 6.46 16 0 16 C0 10.72 0 5.44 0 0 Z " fill="#0C1520" transform="translate(763,769)"/>
<path d="M0 0 C0.33 0 0.66 0 1 0 C1.33 11.88 1.66 23.76 2 36 C-3.94 36 -9.88 36 -16 36 C-16 35.34 -16 34.68 -16 34 C-10.72 34 -5.44 34 0 34 C0 22.78 0 11.56 0 0 Z " fill="#1D2B37" transform="translate(838,784)"/>
<path d="M0 0 C1.37562854 1.28965176 2.70766393 2.62689293 4 4 C4 4.66 4 5.32 4 6 C-3.26 6 -10.52 6 -18 6 C-18 5.01 -18 4.02 -18 3 C-11.73 3.33 -5.46 3.66 1 4 C0.67 2.68 0.34 1.36 0 0 Z " fill="#1D2934" transform="translate(495,814)"/>
<path d="M0 0 C0 3.7794561 -1.04679411 5.79116175 -3 9 C-5.1875 9.875 -5.1875 9.875 -7 10 C-6.42424336 6.64749299 -5.40693737 5.06181371 -2.9375 2.75 C-2.38964844 2.22921875 -1.84179688 1.7084375 -1.27734375 1.171875 C-0.64505859 0.59179688 -0.64505859 0.59179688 0 0 Z " fill="#087CC4" transform="translate(663,527)"/>
<path d="M0 0 C1.32 0.33 2.64 0.66 4 1 C4 1.66 4 2.32 4 3 C1.6875 4.6875 1.6875 4.6875 -1 6 C-1.99 5.67 -2.98 5.34 -4 5 C-2.68 3.35 -1.36 1.7 0 0 Z " fill="#0D81C6" transform="translate(435,389)"/>
<path d="M0 0 C0.66 0.33 1.32 0.66 2 1 C-0.97 3.64 -3.94 6.28 -7 9 C-7.66 8.67 -8.32 8.34 -9 8 C-7.87811441 6.85111717 -6.75238316 5.70598863 -5.625 4.5625 C-4.99851562 3.92441406 -4.37203125 3.28632812 -3.7265625 2.62890625 C-2 1 -2 1 0 0 Z " fill="#0A78C2" transform="translate(640,551)"/>
<path d="M0 0 C0.33 0.66 0.66 1.32 1 2 C0.0409375 2.1546875 0.0409375 2.1546875 -0.9375 2.3125 C-1.618125 2.539375 -2.29875 2.76625 -3 3 C-3.33 3.99 -3.66 4.98 -4 6 C-7.0625 7.1875 -7.0625 7.1875 -10 8 C-10 7.34 -10 6.68 -10 6 C-7.8125 4.4921875 -7.8125 4.4921875 -5 2.875 C-4.071875 2.33617187 -3.14375 1.79734375 -2.1875 1.2421875 C-1.465625 0.83226562 -0.74375 0.42234375 0 0 Z " fill="#0878C3" transform="translate(585,593)"/>
<path d="M0 0 C-0.33 0.66 -0.66 1.32 -1 2 C-3.32156597 2.40729228 -5.6568787 2.74438677 -8 3 C-8.33 2.34 -8.66 1.68 -9 1 C-3.375 -1.125 -3.375 -1.125 0 0 Z " fill="#0E82C8" transform="translate(570,428)"/>
</svg>
